<svg width="75" height="75" viewBox="0 0 75 75" fill="none" xmlns="http://www.w3.org/2000/svg">
<path d="M55 0H20C8.9543 0 0 8.9543 0 20V55C0 66.0457 8.9543 75 20 75H55C66.0457 75 75 66.0457 75 55V20C75 8.9543 66.0457 0 55 0Z" fill="#00B7B5"/>
<mask id="path-2-inside-1_652_3" fill="white">
<path d="M26.3571 41.0925C27.4275 41.0922 28.465 41.4902 29.2941 42.219C30.1233 42.9478 30.6931 43.9626 30.9071 45.0918H44V25.0953H23.5714C22.5863 25.0953 21.6416 25.5167 20.945 26.2667C20.2485 27.0167 19.8571 28.034 19.8571 29.0946V45.0918H21.8071C22.0212 43.9626 22.591 42.9478 23.4202 42.219C24.2493 41.4902 25.2868 41.0922 26.3571 41.0925ZM26.3571 51.0907C25.2868 51.0909 24.2493 50.693 23.4202 49.9642C22.591 49.2354 22.0212 48.2206 21.8071 47.0914H18V29.0946C18 27.5036 18.587 25.9778 19.6318 24.8527C20.6767 23.7277 22.0938 23.0957 23.5714 23.0957H44C44.4925 23.0957 44.9649 23.3064 45.3132 23.6814C45.6615 24.0564 45.8571 24.565 45.8571 25.0953V29.0946H51.4286L57 37.0932V47.0914H53.1929C52.9797 48.2215 52.4103 49.2375 51.5811 49.9673C50.7519 50.697 49.7138 51.0957 48.6429 51.0957C47.5719 51.0957 46.5338 50.697 45.7046 49.9673C44.8754 49.2375 44.306 48.2215 44.0929 47.0914H30.9071C30.6931 48.2206 30.1233 49.2354 29.2941 49.9642C28.465 50.693 27.4275 51.0909 26.3571 51.0907ZM26.3571 43.0921C25.6183 43.0921 24.9098 43.4081 24.3873 43.9706C23.8649 44.5332 23.5714 45.2961 23.5714 46.0916C23.5714 46.8871 23.8649 47.65 24.3873 48.2125C24.9098 48.775 25.6183 49.091 26.3571 49.091C27.096 49.091 27.8045 48.775 28.3269 48.2125C28.8494 47.65 29.1429 46.8871 29.1429 46.0916C29.1429 45.2961 28.8494 44.5332 28.3269 43.9706C27.8045 43.4081 27.096 43.0921 26.3571 43.0921ZM48.6429 41.0925C49.7132 41.0922 50.7507 41.4902 51.5798 42.219C52.409 42.9478 52.9788 43.9626 53.1929 45.0918H55.1429V37.7331L54.6971 37.0932H45.8571V42.0923C46.6371 41.4724 47.6029 41.0925 48.6429 41.0925ZM48.6429 43.0921C47.904 43.0921 47.1955 43.4081 46.6731 43.9706C46.1506 44.5332 45.8571 45.2961 45.8571 46.0916C45.8571 46.8871 46.1506 47.65 46.6731 48.2125C47.1955 48.775 47.904 49.091 48.6429 49.091C49.3817 49.091 50.0902 48.775 50.6127 48.2125C51.1351 47.65 51.4286 46.8871 51.4286 46.0916C51.4286 45.2961 51.1351 44.5332 50.6127 43.9706C50.0902 43.4081 49.3817 43.0921 48.6429 43.0921ZM45.8571 31.0943V35.0936H53.2857L50.5 31.0943H45.8571Z"/>
</mask>
<path d="M26.3571 41.0925C27.4275 41.0922 28.465 41.4902 29.2941 42.219C30.1233 42.9478 30.6931 43.9626 30.9071 45.0918H44V25.0953H23.5714C22.5863 25.0953 21.6416 25.5167 20.945 26.2667C20.2485 27.0167 19.8571 28.034 19.8571 29.0946V45.0918H21.8071C22.0212 43.9626 22.591 42.9478 23.4202 42.219C24.2493 41.4902 25.2868 41.0922 26.3571 41.0925ZM26.3571 51.0907C25.2868 51.0909 24.2493 50.693 23.4202 49.9642C22.591 49.2354 22.0212 48.2206 21.8071 47.0914H18V29.0946C18 27.5036 18.587 25.9778 19.6318 24.8527C20.6767 23.7277 22.0938 23.0957 23.5714 23.0957H44C44.4925 23.0957 44.9649 23.3064 45.3132 23.6814C45.6615 24.0564 45.8571 24.565 45.8571 25.0953V29.0946H51.4286L57 37.0932V47.0914H53.1929C52.9797 48.2215 52.4103 49.2375 51.5811 49.9673C50.7519 50.697 49.7138 51.0957 48.6429 51.0957C47.5719 51.0957 46.5338 50.697 45.7046 49.9673C44.8754 49.2375 44.306 48.2215 44.0929 47.0914H30.9071C30.6931 48.2206 30.1233 49.2354 29.2941 49.9642C28.465 50.693 27.4275 51.0909 26.3571 51.0907ZM26.3571 43.0921C25.6183 43.0921 24.9098 43.4081 24.3873 43.9706C23.8649 44.5332 23.5714 45.2961 23.5714 46.0916C23.5714 46.8871 23.8649 47.65 24.3873 48.2125C24.9098 48.775 25.6183 49.091 26.3571 49.091C27.096 49.091 27.8045 48.775 28.3269 48.2125C28.8494 47.65 29.1429 46.8871 29.1429 46.0916C29.1429 45.2961 28.8494 44.5332 28.3269 43.9706C27.8045 43.4081 27.096 43.0921 26.3571 43.0921ZM48.6429 41.0925C49.7132 41.0922 50.7507 41.4902 51.5798 42.219C52.409 42.9478 52.9788 43.9626 53.1929 45.0918H55.1429V37.7331L54.6971 37.0932H45.8571V42.0923C46.6371 41.4724 47.6029 41.0925 48.6429 41.0925ZM48.6429 43.0921C47.904 43.0921 47.1955 43.4081 46.6731 43.9706C46.1506 44.5332 45.8571 45.2961 45.8571 46.0916C45.8571 46.8871 46.1506 47.65 46.6731 48.2125C47.1955 48.775 47.904 49.091 48.6429 49.091C49.3817 49.091 50.0902 48.775 50.6127 48.2125C51.1351 47.65 51.4286 46.8871 51.4286 46.0916C51.4286 45.2961 51.1351 44.5332 50.6127 43.9706C50.0902 43.4081 49.3817 43.0921 48.6429 43.0921ZM45.8571 31.0943V35.0936H53.2857L50.5 31.0943H45.8571Z" fill="black"/>
<path d="M26.3571 41.0925L26.3563 45.0925L26.358 45.0925L26.3571 41.0925ZM30.9071 45.0918L26.9771 45.8368L27.5942 49.0918H30.9071V45.0918ZM44 45.0918V49.0918H48V45.0918H44ZM44 25.0953H48V21.0953H44V25.0953ZM23.5714 25.0953L23.5714 21.0953L23.5714 25.0953ZM19.8571 29.0946H15.8571H19.8571ZM19.8571 45.0918H15.8571V49.0918H19.8571V45.0918ZM21.8071 45.0918V49.0918H25.1201L25.7371 45.8368L21.8071 45.0918ZM26.3571 51.0907L26.358 47.0907L26.3563 47.0907L26.3571 51.0907ZM21.8071 47.0914L25.7371 46.3464L25.1201 43.0914H21.8071V47.0914ZM18 47.0914H14V51.0914H18V47.0914ZM18 29.0946H14H18ZM23.5714 23.0957L23.5714 19.0957L23.5714 23.0957ZM45.8571 29.0946H41.8571V33.0946H45.8571V29.0946ZM51.4286 29.0946L54.7108 26.8084L53.5171 25.0946H51.4286V29.0946ZM57 37.0932H61V35.8374L60.2822 34.8069L57 37.0932ZM57 47.0914V51.0914H61V47.0914H57ZM53.1929 47.0914V43.0914H49.8767L49.2621 46.3501L53.1929 47.0914ZM44.0929 47.0914L48.0236 46.3501L47.409 43.0914H44.0929V47.0914ZM30.9071 47.0914V43.0914H27.5942L26.9771 46.3464L30.9071 47.0914ZM26.3571 43.0921L26.3571 39.0921L26.3571 43.0921ZM23.5714 46.0916L19.5714 46.0916L23.5714 46.0916ZM48.6429 41.0925L48.6429 45.0925L48.6437 45.0925L48.6429 41.0925ZM53.1929 45.0918L49.2629 45.8368L49.8799 49.0918H53.1929V45.0918ZM55.1429 45.0918V49.0918H59.1429V45.0918H55.1429ZM55.1429 37.7331H59.1429V36.4773L58.4251 35.4468L55.1429 37.7331ZM54.6971 37.0932L57.9794 34.8069L56.7857 33.0932H54.6971V37.0932ZM45.8571 37.0932V33.0932H41.8571V37.0932H45.8571ZM45.8571 42.0923H41.8571V50.3806L48.3458 45.2238L45.8571 42.0923ZM48.6429 43.0921L48.6429 39.0921L48.6429 43.0921ZM45.8571 46.0916L41.8571 46.0916L45.8571 46.0916ZM45.8571 31.0943V27.0943H41.8571V31.0943H45.8571ZM45.8571 35.0936H41.8571V39.0936H45.8571V35.0936ZM53.2857 35.0936V39.0936H60.9467L56.5679 32.8073L53.2857 35.0936ZM50.5 31.0943L53.7822 28.808L52.5885 27.0943H50.5V31.0943ZM26.3571 41.0925L26.358 45.0925C26.4231 45.0925 26.5294 45.1144 26.6534 45.2234L29.2941 42.219L31.9349 39.2146C30.4006 37.866 28.4318 37.092 26.3563 37.0925L26.3571 41.0925ZM29.2941 42.219L26.6534 45.2234C26.784 45.3382 26.9217 45.5446 26.9771 45.8368L30.9071 45.0918L34.8371 44.3467C34.4644 42.3806 33.4625 40.5573 31.9349 39.2146L29.2941 42.219ZM30.9071 45.0918V49.0918H44V45.0918V41.0918H30.9071V45.0918ZM44 45.0918H48V25.0953H44H40V45.0918H44ZM44 25.0953V21.0953H23.5714V25.0953V29.0953H44V25.0953ZM23.5714 25.0953L23.5714 21.0953C21.426 21.0953 19.4341 22.0157 18.0141 23.5446L20.945 26.2667L23.876 28.9888C23.8491 29.0177 23.7466 29.0953 23.5714 29.0953L23.5714 25.0953ZM20.945 26.2667L18.0141 23.5446C16.6034 25.0636 15.8571 27.0646 15.8571 29.0946L19.8571 29.0946L23.8571 29.0946C23.8571 29.055 23.8647 29.0224 23.8732 29.0003C23.8816 28.9783 23.887 28.9769 23.876 28.9888L20.945 26.2667ZM19.8571 29.0946H15.8571V45.0918H19.8571H23.8571V29.0946H19.8571ZM19.8571 45.0918V49.0918H21.8071V45.0918V41.0918H19.8571V45.0918ZM21.8071 45.0918L25.7371 45.8368C25.7925 45.5446 25.9303 45.3382 26.0609 45.2234L23.4202 42.219L20.7794 39.2146C19.2518 40.5573 18.2499 42.3806 17.8771 44.3467L21.8071 45.0918ZM23.4202 42.219L26.0609 45.2234C26.1849 45.1144 26.2912 45.0925 26.3563 45.0925L26.3571 41.0925L26.358 37.0925C24.2825 37.092 22.3137 37.866 20.7794 39.2146L23.4202 42.219ZM26.3571 51.0907L26.3563 47.0907C26.2912 47.0907 26.1849 47.0688 26.0609 46.9598L23.4202 49.9642L20.7794 52.9686C22.3137 54.3172 24.2825 55.0911 26.358 55.0907L26.3571 51.0907ZM23.4202 49.9642L26.0609 46.9598C25.9303 46.845 25.7925 46.6386 25.7371 46.3464L21.8071 47.0914L17.8771 47.8364C18.2499 49.8026 19.2518 51.6259 20.7794 52.9686L23.4202 49.9642ZM21.8071 47.0914V43.0914H18V47.0914V51.0914H21.8071V47.0914ZM18 47.0914H22V29.0946H18H14V47.0914H18ZM18 29.0946H22C22 28.473 22.2321 27.9309 22.5628 27.5748L19.6318 24.8527L16.7009 22.1307C14.9419 24.0247 14 26.5343 14 29.0946H18ZM19.6318 24.8527L22.5628 27.5748C22.8842 27.2287 23.2541 27.0957 23.5714 27.0957L23.5714 23.0957L23.5714 19.0957C20.9335 19.0957 18.4692 20.2267 16.7009 22.1307L19.6318 24.8527ZM23.5714 23.0957V27.0957H44V23.0957V19.0957H23.5714V23.0957ZM44 23.0957V27.0957C43.3322 27.0957 42.7574 26.8074 42.3823 26.4035L45.3132 23.6814L48.2441 20.9593C47.1724 19.8054 45.6528 19.0957 44 19.0957V23.0957ZM45.3132 23.6814L42.3823 26.4035C42.0164 26.0095 41.8571 25.5344 41.8571 25.0953H45.8571H49.8571C49.8571 23.5957 49.3066 22.1033 48.2441 20.9593L45.3132 23.6814ZM45.8571 25.0953H41.8571V29.0946H45.8571H49.8571V25.0953H45.8571ZM45.8571 29.0946V33.0946H51.4286V29.0946V25.0946H45.8571V29.0946ZM51.4286 29.0946L48.1463 31.3809L53.7178 39.3794L57 37.0932L60.2822 34.8069L54.7108 26.8084L51.4286 29.0946ZM57 37.0932H53V47.0914H57H61V37.0932H57ZM57 47.0914V43.0914H53.1929V47.0914V51.0914H57V47.0914ZM53.1929 47.0914L49.2621 46.3501C49.207 46.6426 49.0692 46.8494 48.9385 46.9645L51.5811 49.9673L54.2237 52.97C55.7514 51.6255 56.7525 49.8003 57.1236 47.8327L53.1929 47.0914ZM51.5811 49.9673L48.9385 46.9645C48.8144 47.0737 48.708 47.0957 48.6429 47.0957V51.0957V55.0957C50.7197 55.0957 52.6894 54.3204 54.2237 52.97L51.5811 49.9673ZM48.6429 51.0957V47.0957C48.5777 47.0957 48.4713 47.0737 48.3472 46.9645L45.7046 49.9673L43.062 52.97C44.5963 54.3204 46.566 55.0957 48.6429 55.0957V51.0957ZM45.7046 49.9673L48.3472 46.9645C48.2165 46.8494 48.0787 46.6426 48.0236 46.3501L44.0929 47.0914L40.1621 47.8327C40.5332 49.8003 41.5343 51.6255 43.062 52.97L45.7046 49.9673ZM44.0929 47.0914V43.0914H30.9071V47.0914V51.0914H44.0929V47.0914ZM30.9071 47.0914L26.9771 46.3464C26.9217 46.6386 26.784 46.845 26.6534 46.9598L29.2941 49.9642L31.9349 52.9686C33.4625 51.6259 34.4644 49.8026 34.8371 47.8364L30.9071 47.0914ZM29.2941 49.9642L26.6534 46.9598C26.5294 47.0688 26.4231 47.0907 26.358 47.0907L26.3571 51.0907L26.3563 55.0907C28.4318 55.0911 30.4006 54.3172 31.9349 52.9686L29.2941 49.9642ZM26.3571 43.0921L26.3571 39.0921C24.458 39.0921 22.7023 39.9071 21.4564 41.2486L24.3873 43.9706L27.3183 46.6927C27.1173 46.9092 26.7786 47.0921 26.3571 47.0921L26.3571 43.0921ZM24.3873 43.9706L21.4564 41.2486C20.2198 42.5801 19.5714 44.3267 19.5714 46.0916H23.5714H27.5714C27.5714 46.2654 27.51 46.4862 27.3183 46.6927L24.3873 43.9706ZM23.5714 46.0916L19.5714 46.0916C19.5714 47.8565 20.2198 49.6031 21.4564 50.9346L24.3873 48.2125L27.3183 45.4905C27.51 45.6969 27.5714 45.9177 27.5714 46.0916L23.5714 46.0916ZM24.3873 48.2125L21.4564 50.9346C22.7023 52.276 24.458 53.091 26.3571 53.091V49.091V45.091C26.7786 45.091 27.1173 45.274 27.3183 45.4905L24.3873 48.2125ZM26.3571 49.091V53.091C28.2563 53.091 30.012 52.276 31.2579 50.9346L28.3269 48.2125L25.396 45.4905C25.597 45.274 25.9357 45.091 26.3571 45.091V49.091ZM28.3269 48.2125L31.2579 50.9346C32.4945 49.6031 33.1429 47.8565 33.1429 46.0916H29.1429H25.1429C25.1429 45.9177 25.2043 45.6969 25.396 45.4905L28.3269 48.2125ZM29.1429 46.0916H33.1429C33.1429 44.3267 32.4945 42.5801 31.2579 41.2486L28.3269 43.9706L25.396 46.6927C25.2043 46.4862 25.1429 46.2654 25.1429 46.0916H29.1429ZM28.3269 43.9706L31.2579 41.2486C30.012 39.9071 28.2563 39.0921 26.3571 39.0921L26.3571 43.0921L26.3571 47.0921C25.9357 47.0921 25.597 46.9092 25.396 46.6927L28.3269 43.9706ZM48.6429 41.0925L48.6437 45.0925C48.7088 45.0925 48.8151 45.1144 48.9391 45.2234L51.5798 42.219L54.2206 39.2146C52.6863 37.866 50.7175 37.092 48.642 37.0925L48.6429 41.0925ZM51.5798 42.219L48.9391 45.2234C49.0697 45.3382 49.2075 45.5446 49.2629 45.8368L53.1929 45.0918L57.1229 44.3467C56.7501 42.3806 55.7482 40.5573 54.2206 39.2146L51.5798 42.219ZM53.1929 45.0918V49.0918H55.1429V45.0918V41.0918H53.1929V45.0918ZM55.1429 45.0918H59.1429V37.7331H55.1429H51.1429V45.0918H55.1429ZM55.1429 37.7331L58.4251 35.4468L57.9794 34.8069L54.6971 37.0932L51.4149 39.3794L51.8606 40.0193L55.1429 37.7331ZM54.6971 37.0932V33.0932H45.8571V37.0932V41.0932H54.6971V37.0932ZM45.8571 37.0932H41.8571V42.0923H45.8571H49.8571V37.0932H45.8571ZM45.8571 42.0923L48.3458 45.2238C48.4937 45.1063 48.5987 45.0925 48.6429 45.0925V41.0925V37.0925C46.607 37.0925 44.7805 37.8386 43.3684 38.9608L45.8571 42.0923ZM48.6429 43.0921L48.6429 39.0921C46.7437 39.0921 44.988 39.9071 43.7421 41.2486L46.6731 43.9706L49.604 46.6927C49.403 46.9092 49.0643 47.0921 48.6429 47.0921L48.6429 43.0921ZM46.6731 43.9706L43.7421 41.2486C42.5055 42.5801 41.8571 44.3267 41.8571 46.0916L45.8571 46.0916L49.8571 46.0916C49.8571 46.2654 49.7957 46.4862 49.604 46.6927L46.6731 43.9706ZM45.8571 46.0916L41.8571 46.0916C41.8571 47.8565 42.5055 49.6031 43.7421 50.9346L46.6731 48.2125L49.604 45.4905C49.7957 45.6969 49.8571 45.9177 49.8571 46.0916L45.8571 46.0916ZM46.6731 48.2125L43.7421 50.9346C44.988 52.276 46.7437 53.091 48.6429 53.091V49.091V45.091C49.0643 45.091 49.403 45.274 49.604 45.4905L46.6731 48.2125ZM48.6429 49.091V53.091C50.542 53.091 52.2977 52.276 53.5436 50.9346L50.6127 48.2125L47.6817 45.4905C47.8827 45.274 48.2214 45.091 48.6429 45.091V49.091ZM50.6127 48.2125L53.5436 50.9346C54.7802 49.6031 55.4286 47.8565 55.4286 46.0916H51.4286H47.4286C47.4286 45.9177 47.49 45.6969 47.6817 45.4905L50.6127 48.2125ZM51.4286 46.0916H55.4286C55.4286 44.3267 54.7802 42.5801 53.5436 41.2486L50.6127 43.9706L47.6817 46.6927C47.49 46.4862 47.4286 46.2654 47.4286 46.0916H51.4286ZM50.6127 43.9706L53.5436 41.2486C52.2977 39.9071 50.542 39.0921 48.6429 39.0921L48.6429 43.0921L48.6429 47.0921C48.2214 47.0921 47.8827 46.9091 47.6817 46.6927L50.6127 43.9706ZM45.8571 31.0943H41.8571V35.0936H45.8571H49.8571V31.0943H45.8571ZM45.8571 35.0936V39.0936H53.2857V35.0936V31.0936H45.8571V35.0936ZM53.2857 35.0936L56.5679 32.8073L53.7822 28.808L50.5 31.0943L47.2178 33.3805L50.0035 37.3798L53.2857 35.0936ZM50.5 31.0943V27.0943H45.8571V31.0943V35.0943H50.5V31.0943Z" fill="black" mask="url(#path-2-inside-1_652_3)"/>
</svg>
